<svg width="24" height="24" viewBox="0 0 24 24" fill="none" xmlns="http://www.w3.org/2000/svg">
<mask id="path-1-inside-1_6_1377" fill="white">
<path d="M22.7812 12.2062C22.6312 12.2062 22.5 12.15 22.3875 12.0375L12.4312 2.02499C12.3187 1.91249 12.1687 1.83749 12 1.83749C11.85 1.83749 11.7 1.89374 11.5687 2.02499L1.61249 12C1.49999 12.1125 1.36874 12.1687 1.21874 12.1687C1.06874 12.1687 0.937491 12.1125 0.843741 12.0187C0.731241 11.925 0.674991 11.8125 0.674991 11.6625C0.656241 11.4937 0.731241 11.325 0.843741 11.2125L10.7437 1.23749C11.0812 0.899994 11.5125 0.712494 11.9812 0.712494C12.45 0.712494 12.8812 0.899994 13.2187 1.23749L23.175 11.25C23.2875 11.3625 23.3437 11.5125 23.3437 11.6812C23.3437 11.85 23.25 12 23.1375 12.0937C23.025 12.1687 22.8937 12.2062 22.7812 12.2062Z"/>
</mask>
<path d="M22.3875 12.0375L21.3238 13.0952L21.3268 13.0982L22.3875 12.0375ZM12.4312 2.02499L13.4949 0.967321L13.4919 0.964334L12.4312 2.02499ZM11.5687 2.02499L10.5081 0.964333L10.5071 0.965332L11.5687 2.02499ZM1.61249 12L2.67315 13.0607L2.67415 13.0597L1.61249 12ZM0.843741 12.0187L1.9044 10.9581L1.85629 10.91L1.80402 10.8664L0.843741 12.0187ZM0.674991 11.6625H2.17499V11.5794L2.16582 11.4968L0.674991 11.6625ZM0.843741 11.2125L1.90441 12.2732L1.9084 12.2691L0.843741 11.2125ZM10.7437 1.23749L9.68307 0.176826L9.67908 0.180844L10.7437 1.23749ZM13.2187 1.23749L14.2824 0.179821L14.2794 0.176834L13.2187 1.23749ZM23.175 11.25L22.1113 12.3077L22.1143 12.3107L23.175 11.25ZM23.1375 12.0937L23.9695 13.3418L24.0362 13.2974L24.0978 13.2461L23.1375 12.0937ZM22.7812 10.7062C22.8989 10.7062 23.0307 10.7294 23.1612 10.7853C23.2899 10.8405 23.3848 10.9135 23.4482 10.9768L21.3268 13.0982C21.7017 13.473 22.2074 13.7062 22.7812 13.7062V10.7062ZM23.4511 10.9798L13.4949 0.967326L11.3676 3.08266L21.3238 13.0952L23.4511 10.9798ZM13.4919 0.964334C13.1481 0.620564 12.6321 0.337494 12 0.337494V3.33749C11.7053 3.33749 11.4894 3.20442 11.3706 3.08565L13.4919 0.964334ZM12 0.337494C11.4427 0.337494 10.9139 0.55852 10.5081 0.964334L12.6294 3.08565C12.5667 3.14838 12.4762 3.2155 12.3574 3.26532C12.2386 3.31514 12.1156 3.33749 12 3.33749V0.337494ZM10.5071 0.965332L0.550833 10.9403L2.67415 13.0597L12.6304 3.08466L10.5071 0.965332ZM0.551831 10.9393C0.615135 10.876 0.710081 10.803 0.838798 10.7478C0.969249 10.6919 1.10104 10.6687 1.21874 10.6687V13.6687C1.79257 13.6687 2.29829 13.4355 2.67315 13.0607L0.551831 10.9393ZM1.21874 10.6687C1.45387 10.6687 1.708 10.7617 1.9044 10.9581L-0.21692 13.0794C0.166983 13.4633 0.683606 13.6687 1.21874 13.6687V10.6687ZM1.80402 10.8664C1.88284 10.9321 1.9889 11.0448 2.06946 11.2126C2.15101 11.3825 2.17499 11.5434 2.17499 11.6625H-0.825009C-0.825009 12.2784 -0.554758 12.8059 -0.116536 13.1711L1.80402 10.8664ZM2.16582 11.4968C2.18683 11.686 2.15268 11.8471 2.10576 11.9662C2.05951 12.0836 1.99116 12.1864 1.9044 12.2732L-0.21692 10.1518C-0.589833 10.5247 -0.893825 11.1262 -0.815835 11.8281L2.16582 11.4968ZM1.9084 12.2691L11.8084 2.29414L9.67908 0.180844L-0.220914 10.1558L1.9084 12.2691ZM11.8044 2.29815C11.8774 2.22516 11.9335 2.21249 11.9812 2.21249V-0.787506C11.0915 -0.787506 10.2851 -0.425168 9.68308 0.176834L11.8044 2.29815ZM11.9812 2.21249C12.029 2.21249 12.0851 2.22515 12.1581 2.29815L14.2794 0.176834C13.6774 -0.425167 12.871 -0.787506 11.9812 -0.787506V2.21249ZM12.1551 2.29516L22.1113 12.3077L24.2386 10.1923L14.2824 0.179826L12.1551 2.29516ZM22.1143 12.3107C21.9108 12.1071 21.8437 11.8583 21.8437 11.6812H24.8437C24.8437 11.1667 24.6642 10.6179 24.2357 10.1893L22.1143 12.3107ZM21.8437 11.6812C21.8437 11.4846 21.8985 11.3238 21.9593 11.2097C22.0185 11.0987 22.0941 11.0107 22.1772 10.9414L24.0978 13.2461C24.4593 12.9448 24.8437 12.4034 24.8437 11.6812H21.8437ZM22.3054 10.8457C22.3755 10.799 22.4472 10.7663 22.5182 10.7444C22.5877 10.7231 22.6754 10.7062 22.7812 10.7062V13.7062C23.1992 13.7062 23.6185 13.5758 23.9695 13.3418L22.3054 10.8457Z" fill="#888888" mask="url(#path-1-inside-1_6_1377)"/>
<mask id="path-3-inside-2_6_1377" fill="white">
<path d="M14.9437 23.4V22.6125H14.1562V21.1875C14.1562 19.9875 13.1812 19.0313 12 19.0313C10.8 19.0313 9.8437 20.0063 9.8437 21.1875V22.6125H9.0562V23.4H4.61245C3.6562 23.4 2.88745 22.6313 2.88745 21.675V11.9438C2.88745 11.625 3.1312 11.3813 3.44995 11.3813C3.7687 11.3813 4.01245 11.625 4.01245 11.9438V21.675C4.01245 22.0125 4.27495 22.275 4.61245 22.275H8.7187V21.2063C8.7187 19.3875 10.2 17.925 12 17.925C13.7999 17.925 15.2812 19.4063 15.2812 21.2063V22.275H19.3874C19.7249 22.275 19.9874 22.0125 19.9874 21.675V11.9438C19.9874 11.625 20.2312 11.3813 20.5499 11.3813C20.8687 11.3813 21.1124 11.625 21.1124 11.9438V21.675C21.1124 22.6313 20.3437 23.4 19.3874 23.4H14.9437Z"/>
</mask>
<path d="M14.9437 23.4H13.4437V24.9H14.9437V23.4ZM14.9437 22.6125H16.4437V21.1125H14.9437V22.6125ZM14.1562 22.6125H12.6562V24.1125H14.1562V22.6125ZM9.8437 22.6125V24.1125H11.3437V22.6125H9.8437ZM9.0562 22.6125V21.1125H7.5562V22.6125H9.0562ZM9.0562 23.4V24.9H10.5562V23.4H9.0562ZM8.7187 22.275V23.775H10.2187V22.275H8.7187ZM15.2812 22.275H13.7812V23.775H15.2812V22.275ZM16.4437 23.4V22.6125H13.4437V23.4H16.4437ZM14.9437 21.1125H14.1562V24.1125H14.9437V21.1125ZM15.6562 22.6125V21.1875H12.6562V22.6125H15.6562ZM15.6562 21.1875C15.6562 19.1506 14.0011 17.5313 12 17.5313V20.5313C12.3613 20.5313 12.6562 20.8244 12.6562 21.1875H15.6562ZM12 17.5313C9.96304 17.5313 8.3437 19.1863 8.3437 21.1875H11.3437C11.3437 20.8262 11.6369 20.5313 12 20.5313V17.5313ZM8.3437 21.1875V22.6125H11.3437V21.1875H8.3437ZM9.8437 21.1125H9.0562V24.1125H9.8437V21.1125ZM7.5562 22.6125V23.4H10.5562V22.6125H7.5562ZM9.0562 21.9H4.61245V24.9H9.0562V21.9ZM4.61245 21.9C4.48463 21.9 4.38745 21.8028 4.38745 21.675H1.38745C1.38745 23.4597 2.82777 24.9 4.61245 24.9V21.9ZM4.38745 21.675V11.9438H1.38745V21.675H4.38745ZM4.38745 11.9438C4.38745 12.4534 3.95963 12.8813 3.44995 12.8813V9.88126C2.30277 9.88126 1.38745 10.7966 1.38745 11.9438H4.38745ZM3.44995 12.8813C2.94027 12.8813 2.51245 12.4534 2.51245 11.9438H5.51245C5.51245 10.7966 4.59713 9.88126 3.44995 9.88126V12.8813ZM2.51245 11.9438V21.675H5.51245V11.9438H2.51245ZM2.51245 21.675C2.51245 22.8409 3.44652 23.775 4.61245 23.775V20.775C5.10338 20.775 5.51245 21.1841 5.51245 21.675H2.51245ZM4.61245 23.775H8.7187V20.775H4.61245V23.775ZM10.2187 22.275V21.2063H7.2187V22.275H10.2187ZM10.2187 21.2063C10.2187 20.2215 11.0228 19.425 12 19.425V16.425C9.37711 16.425 7.2187 18.5535 7.2187 21.2063H10.2187ZM12 19.425C12.9715 19.425 13.7812 20.2347 13.7812 21.2063H16.7812C16.7812 18.5778 14.6284 16.425 12 16.425V19.425ZM13.7812 21.2063V22.275H16.7812V21.2063H13.7812ZM15.2812 23.775H19.3874V20.775H15.2812V23.775ZM19.3874 23.775C20.5534 23.775 21.4874 22.8409 21.4874 21.675H18.4874C18.4874 21.1841 18.8965 20.775 19.3874 20.775V23.775ZM21.4874 21.675V11.9438H18.4874V21.675H21.4874ZM21.4874 11.9438C21.4874 12.4534 21.0596 12.8813 20.5499 12.8813V9.88126C19.4028 9.88126 18.4874 10.7966 18.4874 11.9438H21.4874ZM20.5499 12.8813C20.0403 12.8813 19.6124 12.4534 19.6124 11.9438H22.6124C22.6124 10.7966 21.6971 9.88126 20.5499 9.88126V12.8813ZM19.6124 11.9438V21.675H22.6124V11.9438H19.6124ZM19.6124 21.675C19.6124 21.8028 19.5153 21.9 19.3874 21.9V24.9C21.1721 24.9 22.6124 23.4597 22.6124 21.675H19.6124ZM19.3874 21.9H14.9437V24.9H19.3874V21.9Z" fill="#888888" mask="url(#path-3-inside-2_6_1377)"/>
<mask id="path-5-inside-3_6_1377" fill="white">
<path d="M14.1562 23.4V22.275H15.2812V23.4H14.1562ZM8.71875 23.4V22.275H9.84375V23.4H8.71875Z"/>
</mask>
<path d="M14.1562 23.4H12.6562V24.9H14.1562V23.4ZM14.1562 22.275V20.775H12.6562V22.275H14.1562ZM15.2812 22.275H16.7812V20.775H15.2812V22.275ZM15.2812 23.4V24.9H16.7812V23.4H15.2812ZM8.71875 23.4H7.21875V24.9H8.71875V23.4ZM8.71875 22.275V20.775H7.21875V22.275H8.71875ZM9.84375 22.275H11.3438V20.775H9.84375V22.275ZM9.84375 23.4V24.9H11.3438V23.4H9.84375ZM15.6562 23.4V22.275H12.6562V23.4H15.6562ZM14.1562 23.775H15.2812V20.775H14.1562V23.775ZM13.7812 22.275V23.4H16.7812V22.275H13.7812ZM15.2812 21.9H14.1562V24.9H15.2812V21.9ZM10.2188 23.4V22.275H7.21875V23.4H10.2188ZM8.71875 23.775H9.84375V20.775H8.71875V23.775ZM8.34375 22.275V23.4H11.3438V22.275H8.34375ZM9.84375 21.9H8.71875V24.9H9.84375V21.9Z" fill="#888888" mask="url(#path-5-inside-3_6_1377)"/>
</svg>
