<svg width="25" height="24" viewBox="0 0 25 24" fill="none" xmlns="http://www.w3.org/2000/svg">
<path d="M21.9215 12.0306C21.9261 11.902 21.9408 11.7762 21.9408 11.6466C21.9408 5.90301 17.2844 1.24657 11.5408 1.24657C5.79713 1.24657 1.14069 5.90301 1.14069 11.6466C1.14069 16.8533 4.9713 21.1538 9.96579 21.9149C10.1697 22.3099 10.4081 22.6833 10.6731 23.036C4.73797 22.5914 0.0581055 17.6461 0.0581055 11.5975C0.0581055 5.25585 5.19912 0.114838 11.5408 0.114838C17.8824 0.114838 23.0234 5.25585 23.0234 11.5975C23.0234 12.0678 22.9867 12.5285 22.9315 12.9837C22.6232 12.6373 22.2852 12.3184 21.9215 12.0306Z" fill="black"/>
<path d="M23.794 23.172C23.794 23.4728 23.5253 23.7383 23.2213 23.7383C22.8809 23.7383 22.9461 23.5854 22.9461 23.2836V23.2648H22.9269C22.6632 20.9903 20.6983 19.1517 18.3485 19.0396C18.1709 19.0584 17.9919 19.0584 17.8143 19.0396C15.4296 19.1719 13.5602 20.9825 13.236 23.2648V23.2836C13.236 23.6042 13.2654 23.7383 12.9613 23.7383C12.8105 23.7383 12.6657 23.6789 12.5584 23.5729C12.4511 23.4669 12.3899 23.3228 12.3881 23.172V23.0305C12.3881 22.9947 12.3881 22.9593 12.406 22.924C12.6926 20.9591 13.9819 19.2771 15.826 18.516C14.7517 17.7898 14.0714 16.5685 14.0714 15.2407C14.0714 14.143 14.4651 13.2051 15.2349 12.4435C16.023 11.6645 16.972 11.275 18.0821 11.275C20.2845 11.275 22.0932 13.0631 22.0932 15.2407C22.094 15.8891 21.9341 16.5277 21.6279 17.0992C21.3216 17.6708 20.8785 18.1575 20.3382 18.516C22.2007 19.2945 23.5253 20.9944 23.7582 22.9947L23.7761 23.1013V23.1187C23.7761 23.1366 23.7761 23.1545 23.794 23.1545H23.7761L23.794 23.172ZM21.2118 15.2412C21.2118 14.3712 20.8986 13.6556 20.2923 13.0562C19.686 12.4568 18.9428 12.1473 18.0826 12.1473C17.2218 12.1473 16.4787 12.4568 15.8724 13.0562C15.2661 13.6556 14.9533 14.3712 14.9533 15.2412C14.9533 16.9231 16.3808 18.335 18.0826 18.335L18.0821 18.3318C19.6575 18.3318 21.2118 16.9429 21.2118 15.2412ZM16.0258 6.4652L17.0174 5.48274L18.0091 6.4652L17.0174 7.44811L16.0258 6.4652ZM5.12462 6.50056L6.13785 5.49882L7.15107 6.50056L6.13785 7.50231L5.12462 6.50056ZM7.01282 16.7812L6.02118 17.7641L5.02954 16.7812L6.02118 15.7983L7.01282 16.7812ZM11.5407 4.13376C11.6625 4.13376 11.7793 4.18215 11.8654 4.26829C11.9516 4.35442 12 4.47125 12 4.59306V11.3678H11.0814V4.59306C11.0814 4.53275 11.0932 4.47302 11.1163 4.4173C11.1394 4.36157 11.1732 4.31094 11.2159 4.26829C11.2585 4.22564 11.3092 4.1918 11.3649 4.16872C11.4206 4.14564 11.4803 4.13376 11.5407 4.13376Z" fill="black"/>
<path d="M4.7085 11.4252C4.7085 11.3649 4.72038 11.3052 4.74346 11.2495C4.76654 11.1938 4.80037 11.1431 4.84302 11.1005C4.88567 11.0578 4.93631 11.024 4.99203 11.0009C5.04776 10.9778 5.10749 10.9659 5.1678 10.9659H11.9426V11.8846H5.1678C5.10749 11.8846 5.04776 11.8727 4.99203 11.8496C4.93631 11.8265 4.88567 11.7927 4.84302 11.75C4.80037 11.7074 4.76654 11.6567 4.74346 11.601C4.72038 11.5453 4.7085 11.4856 4.7085 11.4252Z" fill="black"/>
</svg>
