<svg width="30" height="32" viewBox="0 0 30 32" fill="none" xmlns="http://www.w3.org/2000/svg">
<g filter="url(#filter0_d_4_729)">
<path d="M11.5 19.5H11C7 19.5 5 18.5 5 13.5V8.5C5 4.5 7 2.5 11 2.5H19C23 2.5 25 4.5 25 8.5V13.5C25 17.5 23 19.5 19 19.5H18.5C18.19 19.5 17.89 19.65 17.7 19.9L16.2 21.9C15.54 22.78 14.46 22.78 13.8 21.9L12.3 19.9C12.14 19.68 11.77 19.5 11.5 19.5Z" stroke="#191A1A" stroke-width="1.5" stroke-miterlimit="10" stroke-linecap="round" stroke-linejoin="round"/>
<path d="M18.9965 11.5H19.0054" stroke="#191A1A" stroke-width="2" stroke-linecap="round" stroke-linejoin="round"/>
<path d="M14.9955 11.5H15.0045" stroke="#191A1A" stroke-width="2" stroke-linecap="round" stroke-linejoin="round"/>
<path d="M10.9945 11.5H11.0035" stroke="#191A1A" stroke-width="2" stroke-linecap="round" stroke-linejoin="round"/>
</g>
<defs>
<filter id="filter0_d_4_729" x="0.25" y="1.75" width="29.5" height="29.56" filterUnits="userSpaceOnUse" color-interpolation-filters="sRGB">
<feFlood flood-opacity="0" result="BackgroundImageFix"/>
<feColorMatrix in="SourceAlpha" type="matrix" values="0 0 0 0 0 0 0 0 0 0 0 0 0 0 0 0 0 0 127 0" result="hardAlpha"/>
<feOffset dy="4"/>
<feGaussianBlur stdDeviation="2"/>
<feComposite in2="hardAlpha" operator="out"/>
<feColorMatrix type="matrix" values="0 0 0 0 0 0 0 0 0 0 0 0 0 0 0 0 0 0 0.25 0"/>
<feBlend mode="normal" in2="BackgroundImageFix" result="effect1_dropShadow_4_729"/>
<feBlend mode="normal" in="SourceGraphic" in2="effect1_dropShadow_4_729" result="shape"/>
</filter>
</defs>
</svg>
