<svg width="24" height="24" viewBox="0 0 24 24" fill="none" xmlns="http://www.w3.org/2000/svg">
<path d="M22.6415 6H19.0189V1.2C19.0189 0.52 18.4302 0 17.6604 0H1.35849C0.588679 0 0 0.52 0 1.2V22.8C0 23.48 0.588679 24 1.35849 24H15.1245L19.0189 20.56V18H18.1132V20H15.8491C15.0792 20 14.4906 20.52 14.4906 21.2V23.2H1.35849C1.08679 23.2 0.90566 23.04 0.90566 22.8V1.2C0.90566 0.96 1.08679 0.8 1.35849 0.8H17.6604C17.9321 0.8 18.1132 0.96 18.1132 1.2V6H14.4906C13.7208 6 13.1321 6.52 13.1321 7.2V14.4C13.1321 15.08 13.7208 15.6 14.4906 15.6H17.0264L18.566 16.96L20.1057 15.6H22.6415C23.4113 15.6 24 15.08 24 14.4V7.2C24 6.52 23.4113 6 22.6415 6ZM15.8491 20.8H17.4792L15.3962 22.64V21.2C15.3962 20.96 15.5774 20.8 15.8491 20.8ZM23.0943 14.4C23.0943 14.64 22.9132 14.8 22.6415 14.8H19.7434L18.566 15.84L17.3887 14.8H14.4906C14.2189 14.8 14.0377 14.64 14.0377 14.4V7.2C14.0377 6.96 14.2189 6.8 14.4906 6.8H22.6415C22.9132 6.8 23.0943 6.96 23.0943 7.2V14.4Z" fill="black"/>
<path d="M12.2264 2H6.79248V2.8H12.2264V2Z" fill="black"/>
<path d="M3.62265 4H2.26416V4.8H3.62265V4Z" fill="black"/>
<path d="M16.7547 4H4.52832V4.8H16.7547V4Z" fill="black"/>
<path d="M3.62265 6.39999H2.26416V7.19999H3.62265V6.39999Z" fill="black"/>
<path d="M11.7736 6.39999H4.52832V7.19999H11.7736V6.39999Z" fill="black"/>
<path d="M3.62265 8.8H2.26416V9.6H3.62265V8.8Z" fill="black"/>
<path d="M11.7736 8.8H4.52832V9.6H11.7736V8.8Z" fill="black"/>
<path d="M3.62265 11.2H2.26416V12H3.62265V11.2Z" fill="black"/>
<path d="M11.7736 11.2H4.52832V12H11.7736V11.2Z" fill="black"/>
<path d="M3.62265 13.6H2.26416V14.4H3.62265V13.6Z" fill="black"/>
<path d="M11.7736 13.6H4.52832V14.4H11.7736V13.6Z" fill="black"/>
<path d="M3.62265 16H2.26416V16.8H3.62265V16Z" fill="black"/>
<path d="M11.7736 16H4.52832V16.8H11.7736V16Z" fill="black"/>
<path d="M3.62265 18.4H2.26416V19.2H3.62265V18.4Z" fill="black"/>
<path d="M16.7547 18.4H4.52832V19.2H16.7547V18.4Z" fill="black"/>
<path d="M3.62265 20.8H2.26416V21.6H3.62265V20.8Z" fill="black"/>
<path d="M13.1321 20.8H4.52832V21.6H13.1321V20.8Z" fill="black"/>
<path d="M20.3773 10.08V9.20001C20.3773 8.32001 19.5622 7.60001 18.566 7.60001C17.5698 7.60001 16.7547 8.32001 16.7547 9.20001H17.6603C17.6603 8.76001 18.0679 8.40001 18.566 8.40001C19.0641 8.40001 19.4716 8.76001 19.4716 9.20001V10H17.2075C16.4377 10 15.849 10.52 15.849 11.2V12.8C15.849 13.48 16.4377 14 17.2075 14H19.9245C20.6943 14 21.283 13.48 21.283 12.8V11.2C21.283 10.68 20.9207 10.24 20.3773 10.08ZM20.3773 12.8C20.3773 13.04 20.1962 13.2 19.9245 13.2H17.2075C16.9358 13.2 16.7547 13.04 16.7547 12.8V11.2C16.7547 10.96 16.9358 10.8 17.2075 10.8H19.9245C20.1962 10.8 20.3773 10.96 20.3773 11.2V12.8Z" fill="black"/>
</svg>
