<svg width="25" height="24" viewBox="0 0 25 24" fill="none" xmlns="http://www.w3.org/2000/svg">
<path d="M2.54167 -0.00112915C1.4228 -0.00112915 0.5 0.921604 0.5 2.04054V21.9598C0.5 23.0787 1.4228 23.9989 2.54167 23.9989H22.4583C23.5772 23.9989 24.5 23.0787 24.5 21.9598V2.04054C24.5 0.921604 23.5772 -0.00112915 22.4583 -0.00112915H2.54167ZM2.54167 1.33481H22.4583C22.8615 1.33481 23.1667 1.6372 23.1667 2.04054V21.9598C23.1667 22.3631 22.8615 22.6655 22.4583 22.6655H2.54167C2.13845 22.6655 1.83333 22.3631 1.83333 21.9598V2.04054C1.83333 1.6372 2.13845 1.33481 2.54167 1.33481Z" fill="black"/>
<path d="M11.8334 3.99887C11.6566 3.99889 11.4871 4.06916 11.362 4.19418C11.237 4.3192 11.1668 4.48873 11.1667 4.66554V8.66554C11.1668 8.84234 11.237 9.01187 11.362 9.13689C11.4871 9.26191 11.6566 9.33219 11.8334 9.3322H19.8334C20.0102 9.33219 20.1798 9.26191 20.3048 9.13689C20.4298 9.01187 20.5001 8.84234 20.5001 8.66554V4.66554C20.5001 4.48873 20.4298 4.3192 20.3048 4.19418C20.1798 4.06916 20.0102 3.99889 19.8334 3.99887H11.8334ZM12.5001 5.3322H19.1667V7.99887H12.5001V5.3322Z" fill="black"/>
<path d="M11.8334 10.6655C11.6566 10.6655 11.4871 10.7358 11.362 10.8608C11.237 10.9859 11.1668 11.1554 11.1667 11.3322V15.3322C11.1668 15.509 11.237 15.6785 11.362 15.8035C11.4871 15.9286 11.6566 15.9988 11.8334 15.9989H19.8334C20.0102 15.9988 20.1798 15.9286 20.3048 15.8035C20.4298 15.6785 20.5001 15.509 20.5001 15.3322V11.3322C20.5001 11.1554 20.4298 10.9859 20.3048 10.8608C20.1798 10.7358 20.0102 10.6655 19.8334 10.6655H11.8334ZM12.5001 11.9989H19.1667V14.6655H12.5001V11.9989Z" fill="black"/>
<path fill-rule="evenodd" clip-rule="evenodd" d="M4.5 5.33221V6.66555H8.5V5.33221H4.5Z" fill="black"/>
<path fill-rule="evenodd" clip-rule="evenodd" d="M4.5 11.9989V13.3322H8.5V11.9989H4.5Z" fill="black"/>
<path fill-rule="evenodd" clip-rule="evenodd" d="M4.5 18.6655V19.9989H20.3646V18.6655H4.5Z" fill="black"/>
</svg>
