<!DOCTYPE svg PUBLIC "-//W3C//DTD SVG 1.1//EN" "http://www.w3.org/Graphics/SVG/1.1/DTD/svg11.dtd">
<!-- Uploaded to: SVG Repo, www.svgrepo.com, Transformed by: SVG Repo Mixer Tools -->
<svg fill="#ffffff" height="800px" width="800px" version="1.1" id="working-from-home" xmlns="http://www.w3.org/2000/svg" xmlns:xlink="http://www.w3.org/1999/xlink" x="0px" y="0px" viewBox="0 0 257 256" xml:space="preserve">
<g id="SVGRepo_bgCarrier" stroke-width="0"/>
<g id="SVGRepo_tracerCarrier" stroke-linecap="round" stroke-linejoin="round"/>
<g id="SVGRepo_iconCarrier"> <path d="M135.3,157.3h24.2v0v19.4V256H0v-79.3V165v-7.7h18c1.4-15.2,4.8-31.3,8.9-42.6c3.2-8.8,9.6-17.4,19-17.4 c8.8,0,13.9,5.3,15.9,12.9l11,29.4l26.5,0.2c5.6,0,10.2,4.6,10.1,10.2c0,0.6-0.1,1.1-0.2,1.7h17.7l8.8-45.9l9.1,1.7L135.3,157.3z M76.9,104.6c11.2,0,20.3-9.1,20.3-20.3c0-11.2-9.1-20.3-20.3-20.3S56.6,73,56.6,84.2C56.6,95.5,65.7,104.6,76.9,104.6z M85.4,0 H37.2L193,116.2v139.2h28.8V137.7l18.4,13.8l17.2-23.1L85.4,0z"/> </g>
</svg>