<svg width="25" height="24" viewBox="0 0 25 24" fill="none" xmlns="http://www.w3.org/2000/svg">
<path fill-rule="evenodd" clip-rule="evenodd" d="M6.02978 4.49911C2.83481 6.97336 0.171695 9.04387 0.111694 9.10021C-0.0369966 9.23995 -0.0372779 9.50747 0.111131 9.64693C0.377949 9.89758 0.0471456 10.1304 6.2606 5.31864C9.40597 2.88287 11.99 0.889847 12.0029 0.889753C12.0158 0.889659 13.0389 1.67328 14.2764 2.63119C17.6026 5.20576 17.4703 5.10812 17.6314 5.10812C17.7191 5.10812 17.8166 5.06438 17.8879 4.99304C18.0025 4.87857 18.003 4.87351 18.003 3.93833V2.9987H19.128H20.2531V5.09917C20.2531 6.70734 20.2668 7.21763 20.3117 7.27641C20.3439 7.31865 21.0664 7.8918 21.9172 8.55008C23.2475 9.57943 23.4867 9.7471 23.6256 9.7479C23.8583 9.74926 24.05 9.55519 24.05 9.31819C24.05 9.21989 24.0342 9.14419 24.0149 9.14995C23.9955 9.15572 23.7477 8.97778 23.4641 8.75451C23.1805 8.53123 22.516 8.01377 21.9875 7.60464L21.0265 6.86067L21.0143 4.6627C21.0022 2.48175 21.0014 2.46385 20.9007 2.35669L20.7992 2.24869H19.128H17.4569L17.3562 2.35584C17.2634 2.45457 17.2545 2.52052 17.2425 3.19239L17.2296 3.92178L14.6983 1.96068C12.4643 0.229974 12.1477 -0.000374551 12.0029 4.56462e-07C11.8571 0.000375464 11.1912 0.501901 6.02978 4.49911ZM6.58873 6.81187C6.05561 6.98841 5.65163 7.33946 5.42068 7.82678L5.2762 8.13162V8.99882V9.86603L5.42068 10.1709C5.60574 10.5613 5.9403 10.8959 6.33077 11.081C6.61109 11.2138 6.67522 11.2254 7.1278 11.2254C7.58039 11.2254 7.64452 11.2138 7.92484 11.081C8.31531 10.8959 8.64987 10.5613 8.83493 10.1709L8.9794 9.86603V8.99882V8.13162L8.83493 7.82678C8.64898 7.43443 8.31508 7.10114 7.92484 6.91842C7.66777 6.79804 7.55386 6.77362 7.19812 6.7627C6.93889 6.75478 6.70395 6.77372 6.58873 6.81187ZM6.83309 7.56442C6.53993 7.64462 6.28938 7.8521 6.1436 8.13537C6.03531 8.34579 6.02622 8.41283 6.02622 8.99882C6.02622 9.58815 6.03489 9.65101 6.14599 9.86682C6.55742 10.6663 7.69594 10.6707 8.10573 9.87442C8.20009 9.69109 8.22554 9.56054 8.24284 9.17119C8.25522 8.89321 8.24064 8.58008 8.20806 8.42309C8.07526 7.78342 7.45308 7.39482 6.83309 7.56442ZM11.357 9.10504C11.2717 9.1958 11.2022 9.54062 10.88 11.4705C10.6726 12.7131 10.5029 13.8007 10.5029 13.8874C10.5029 13.9916 10.5397 14.0797 10.6113 14.147C10.7188 14.2479 10.7372 14.2489 12.4864 14.2489H14.2529V14.9989V15.749H13.4137H12.5744L12.6637 15.5141C12.7919 15.1766 12.783 14.856 12.6416 14.7232C12.5401 14.6279 12.3843 14.6023 10.8728 14.4332C9.51979 14.2818 9.20127 14.2328 9.13916 14.1663C9.0973 14.1215 8.69444 13.6419 8.24397 13.1005C7.79344 12.5591 7.3904 12.0878 7.34836 12.0532C7.28985 12.005 7.10849 11.994 6.5787 12.0063C5.91803 12.0216 5.87134 12.0291 5.58076 12.1668C5.19028 12.3519 4.85573 12.6864 4.67066 13.0769L4.52619 13.3817V16.124V18.8662L4.66457 19.1475C4.74069 19.3022 4.81101 19.4445 4.8208 19.4639C4.83065 19.4832 4.59435 19.499 4.2957 19.499H3.75274V16.2259V12.9528L3.64427 12.8508C3.49557 12.7112 3.23912 12.7143 3.10463 12.8574L3.00272 12.9659V16.5055V20.0452L3.11119 20.1471C3.21573 20.2453 3.25707 20.2491 4.23621 20.2491H5.25277V21.7491V23.2491H4.60466C3.98782 23.2491 3.95168 23.2544 3.85464 23.3576C3.715 23.5063 3.7181 23.7627 3.86121 23.8972C3.96841 23.9979 3.98974 23.9991 5.63434 23.9991H7.29895L7.4009 23.8907C7.54055 23.742 7.53745 23.4855 7.39434 23.351C7.29384 23.2567 7.23848 23.2491 6.64433 23.2491H6.00278V21.7491V20.2491H7.38229H8.76181L9.62062 21.7548C10.5616 23.4046 10.6899 23.5725 11.2025 23.8251L11.5082 23.9757L12.3931 23.9911C13.2572 24.0062 13.2807 24.004 13.3905 23.9009C13.4645 23.8314 13.5029 23.7431 13.5029 23.6427C13.5029 23.4311 10.6195 18.0044 10.3719 17.7503C10.2764 17.6522 10.0616 17.5045 9.8947 17.4221C9.59179 17.2727 9.58973 17.2724 8.73452 17.257L7.87782 17.2415V16.8703V16.499H14.0654H20.2531V20.1471V23.7953L20.3615 23.8972C20.5102 24.0369 20.7667 24.0338 20.9012 23.8907L21.0031 23.7821V19.8675V15.9528L20.8946 15.8509L20.7861 15.749H17.8946H15.003V14.9989V14.2489H16.4011C17.7933 14.2489 17.7996 14.2485 17.899 14.1427C17.9842 14.052 18.0537 13.7071 18.3759 11.7773C18.5833 10.5347 18.753 9.44705 18.753 9.36033C18.753 9.25613 18.7162 9.16809 18.6446 9.10073L18.5361 8.99882H14.9964H11.4568L11.357 9.10504ZM0.0154107 9.37383C0.0154107 9.48985 0.0245515 9.53733 0.0357548 9.4793C0.0469113 9.42127 0.0469113 9.32639 0.0357548 9.26836C0.0245515 9.21033 0.0154107 9.25781 0.0154107 9.37383ZM11.956 9.77443C11.956 9.78854 11.8189 10.6208 11.6513 11.6239C11.4838 12.627 11.3466 13.4592 11.3466 13.4733C11.3466 13.4874 12.6861 13.4989 14.3233 13.4989C15.9604 13.4989 17.2999 13.4874 17.2999 13.4733C17.2999 13.4592 17.437 12.627 17.6046 11.6239C17.7722 10.6208 17.9093 9.78854 17.9093 9.77443C17.9093 9.76037 16.5698 9.74884 14.9326 9.74884C13.2955 9.74884 11.956 9.76037 11.956 9.77443ZM6.08308 12.8156C5.79062 12.8942 5.53969 13.1016 5.39358 13.3854L5.2762 13.6134L5.26242 15.9764C5.25305 17.5887 5.26533 18.4197 5.30114 18.5921C5.36869 18.9175 5.58615 19.2021 5.88461 19.3558L6.11716 19.4756L7.64166 19.4903C8.9719 19.5032 9.17694 19.5148 9.25068 19.5815C9.29713 19.6235 9.75014 20.3848 10.2574 21.2731C11.2705 23.0475 11.3148 23.1032 11.7923 23.2023C11.9306 23.231 12.1396 23.248 12.2569 23.2401L12.4701 23.2257L11.1678 20.7755C9.75393 18.1153 9.77976 18.1534 9.32347 18.0482C9.21158 18.0224 8.71765 18.0008 8.22583 18.0001C7.03499 17.9986 7.12785 18.1001 7.12766 16.8007L7.12748 15.8193L6.56529 15.1161C6.08322 14.5132 6.00306 14.3891 6.00292 14.2454C6.00273 14.0247 6.15864 13.8739 6.38707 13.8739C6.58606 13.8739 6.60504 13.8934 7.47811 14.9902L8.08623 15.7542L9.77503 15.7399C11.4197 15.7259 11.4681 15.7228 11.6279 15.6227C11.8277 15.4975 11.9489 15.3271 11.8381 15.3271C11.7986 15.3271 11.1091 15.2531 10.3059 15.1627C9.14464 15.032 8.82682 14.9816 8.75445 14.9166C8.70443 14.8716 8.27251 14.3656 7.79466 13.7919L6.92582 12.7489L6.61667 12.752C6.4466 12.7538 6.2065 12.7824 6.08308 12.8156ZM16.2299 18.4825C16.1398 18.5785 16.128 18.6434 16.128 19.045C16.128 19.2947 16.1163 19.499 16.102 19.499C16.0877 19.499 15.9517 19.4147 15.7999 19.3115C15.4028 19.0419 15.1137 19.0608 15.0082 19.3635C14.9252 19.6017 15.02 19.7212 15.5991 20.1084L16.1248 20.46L16.1264 20.7295L16.128 20.9991H15.4799C14.863 20.9991 14.8269 21.0043 14.7299 21.1075C14.5923 21.254 14.5971 21.3373 14.8179 22.6545C14.9732 23.5804 15.0261 23.8067 15.1074 23.8933C15.2059 23.9982 15.218 23.9991 16.503 23.9991C17.788 23.9991 17.8001 23.9982 17.8986 23.8933C17.9799 23.8067 18.0328 23.5804 18.188 22.6545C18.4115 21.3219 18.4159 21.2385 18.2696 21.101C18.1691 21.0066 18.1137 20.9991 17.5195 20.9991H16.878L16.8795 20.7295L16.8811 20.46L17.4069 20.1084C17.986 19.7212 18.0808 19.6017 17.9978 19.3635C17.8923 19.0608 17.6032 19.0419 17.2061 19.3115C17.0543 19.4147 16.9183 19.499 16.904 19.499C16.8897 19.499 16.878 19.2917 16.878 19.0384C16.878 18.6176 16.8686 18.5691 16.7695 18.4759C16.6208 18.3363 16.3644 18.3394 16.2299 18.4825ZM15.4722 21.7842C15.4724 21.8036 15.525 22.1253 15.5889 22.4991C15.6529 22.8729 15.7054 23.1946 15.7056 23.214C15.7059 23.2333 16.0647 23.2491 16.503 23.2491C16.9413 23.2491 17.3001 23.2333 17.3004 23.214C17.3006 23.1946 17.3531 22.8729 17.4171 22.4991C17.481 22.1253 17.5336 21.8036 17.5338 21.7842C17.5341 21.7649 17.0702 21.7491 16.503 21.7491C15.9358 21.7491 15.4719 21.7649 15.4722 21.7842Z" fill="#040404"/>
</svg>
